<?xml version="1.0" encoding="UTF-8" standalone="no"?>
<!DOCTYPE svg PUBLIC "-//W3C//DTD SVG 1.1//EN"
 "http://www.w3.org/Graphics/SVG/1.1/DTD/svg11.dtd">
<!-- Generated by graphviz version 2.47.3 (20210619.1520)
 -->
<!-- Title: dependencies Pages: 1 -->
<svg width="2641pt" height="247pt"
 viewBox="0.00 0.00 2641.00 246.80" xmlns="http://www.w3.org/2000/svg" xmlns:xlink="http://www.w3.org/1999/xlink">
<g id="graph0" class="graph" transform="scale(1 1) rotate(0) translate(4 242.8)">
<title>dependencies</title>
<polygon fill="white" stroke="transparent" points="-4,4 -4,-242.8 2637,-242.8 2637,4 -4,4"/>
<text text-anchor="middle" x="1316.5" y="-8.2" font-family="sans-serif" font-size="14.00">dependencies</text>
<g id="clust1" class="cluster">
<title>cluster_AppModule</title>
<polygon fill="none" stroke="black" stroke-dasharray="1,5" points="8,-32.8 8,-230.8 2625,-230.8 2625,-32.8 8,-32.8"/>
</g>
<g id="clust18" class="cluster">
<title>cluster_AppModule_imports</title>
<polygon fill="none" stroke="black" points="2473,-40.8 2473,-92.8 2617,-92.8 2617,-40.8 2473,-40.8"/>
</g>
<g id="clust20" class="cluster">
<title>cluster_AppModule_bootstrap</title>
<polygon fill="none" stroke="black" points="1285,-170.8 1285,-222.8 1409,-222.8 1409,-170.8 1285,-170.8"/>
</g>
<g id="clust2" class="cluster">
<title>cluster_AppModule_declarations</title>
<polygon fill="none" stroke="black" points="16,-40.8 16,-92.8 2465,-92.8 2465,-40.8 16,-40.8"/>
</g>
<!-- AppComponent -->
<g id="node1" class="node">
<title>AppComponent</title>
<polygon fill="#ffffb3" stroke="black" points="2456.94,-84.8 2351.06,-84.8 2351.06,-48.8 2456.94,-48.8 2456.94,-84.8"/>
<text text-anchor="middle" x="2404" y="-62.6" font-family="Times,serif" font-size="14.00">AppComponent</text>
</g>
<!-- AppModule -->
<g id="node16" class="node">
<title>AppModule</title>
<polygon fill="#8dd3c7" stroke="black" points="1388.66,-149.8 1385.66,-153.8 1364.66,-153.8 1361.66,-149.8 1305.34,-149.8 1305.34,-113.8 1388.66,-113.8 1388.66,-149.8"/>
<text text-anchor="middle" x="1347" y="-127.6" font-family="Times,serif" font-size="14.00">AppModule</text>
</g>
<!-- AppComponent&#45;&gt;AppModule -->
<g id="edge1" class="edge">
<title>AppComponent&#45;&gt;AppModule</title>
<path fill="none" stroke="black" d="M2404,-85.09C2404,-107.01 2404,-140.8 2404,-140.8 2404,-140.8 1398.76,-140.8 1398.76,-140.8"/>
<polygon fill="black" stroke="black" points="1398.76,-137.3 1388.76,-140.8 1398.76,-144.3 1398.76,-137.3"/>
</g>
<!-- CarrinhoComponent -->
<g id="node2" class="node">
<title>CarrinhoComponent</title>
<polygon fill="#ffffb3" stroke="black" points="2333.6,-84.8 2202.4,-84.8 2202.4,-48.8 2333.6,-48.8 2333.6,-84.8"/>
<text text-anchor="middle" x="2268" y="-62.6" font-family="Times,serif" font-size="14.00">CarrinhoComponent</text>
</g>
<!-- CarrinhoComponent&#45;&gt;AppModule -->
<g id="edge2" class="edge">
<title>CarrinhoComponent&#45;&gt;AppModule</title>
<path fill="none" stroke="black" d="M2268,-84.83C2268,-105.57 2268,-136.8 2268,-136.8 2268,-136.8 1398.66,-136.8 1398.66,-136.8"/>
<polygon fill="black" stroke="black" points="1398.66,-133.3 1388.66,-136.8 1398.66,-140.3 1398.66,-133.3"/>
</g>
<!-- CarrinhoVazioComponent -->
<g id="node3" class="node">
<title>CarrinhoVazioComponent</title>
<polygon fill="#ffffb3" stroke="black" points="2184.02,-84.8 2019.98,-84.8 2019.98,-48.8 2184.02,-48.8 2184.02,-84.8"/>
<text text-anchor="middle" x="2102" y="-62.6" font-family="Times,serif" font-size="14.00">CarrinhoVazioComponent</text>
</g>
<!-- CarrinhoVazioComponent&#45;&gt;AppModule -->
<g id="edge3" class="edge">
<title>CarrinhoVazioComponent&#45;&gt;AppModule</title>
<path fill="none" stroke="black" d="M2102,-84.91C2102,-104.14 2102,-131.8 2102,-131.8 2102,-131.8 1398.67,-131.8 1398.67,-131.8"/>
<polygon fill="black" stroke="black" points="1398.67,-128.3 1388.67,-131.8 1398.67,-135.3 1398.67,-128.3"/>
</g>
<!-- ConcluirCompraComponent -->
<g id="node4" class="node">
<title>ConcluirCompraComponent</title>
<polygon fill="#ffffb3" stroke="black" points="2001.93,-84.8 1826.07,-84.8 1826.07,-48.8 2001.93,-48.8 2001.93,-84.8"/>
<text text-anchor="middle" x="1914" y="-62.6" font-family="Times,serif" font-size="14.00">ConcluirCompraComponent</text>
</g>
<!-- ConcluirCompraComponent&#45;&gt;AppModule -->
<g id="edge4" class="edge">
<title>ConcluirCompraComponent&#45;&gt;AppModule</title>
<path fill="none" stroke="black" d="M1914,-85.1C1914,-103.07 1914,-127.8 1914,-127.8 1914,-127.8 1398.69,-127.8 1398.69,-127.8"/>
<polygon fill="black" stroke="black" points="1398.69,-124.3 1388.69,-127.8 1398.69,-131.3 1398.69,-124.3"/>
</g>
<!-- ContatoComponent -->
<g id="node5" class="node">
<title>ContatoComponent</title>
<polygon fill="#ffffb3" stroke="black" points="1807.67,-84.8 1682.33,-84.8 1682.33,-48.8 1807.67,-48.8 1807.67,-84.8"/>
<text text-anchor="middle" x="1745" y="-62.6" font-family="Times,serif" font-size="14.00">ContatoComponent</text>
</g>
<!-- ContatoComponent&#45;&gt;AppModule -->
<g id="edge5" class="edge">
<title>ContatoComponent&#45;&gt;AppModule</title>
<path fill="none" stroke="black" d="M1745,-84.83C1745,-101.2 1745,-122.8 1745,-122.8 1745,-122.8 1398.84,-122.8 1398.84,-122.8"/>
<polygon fill="black" stroke="black" points="1398.84,-119.3 1388.84,-122.8 1398.84,-126.3 1398.84,-119.3"/>
</g>
<!-- DoencaAdminComponent -->
<g id="node6" class="node">
<title>DoencaAdminComponent</title>
<polygon fill="#ffffb3" stroke="black" points="1664.47,-84.8 1501.53,-84.8 1501.53,-48.8 1664.47,-48.8 1664.47,-84.8"/>
<text text-anchor="middle" x="1583" y="-62.6" font-family="Times,serif" font-size="14.00">DoencaAdminComponent</text>
</g>
<!-- DoencaAdminComponent&#45;&gt;AppModule -->
<g id="edge6" class="edge">
<title>DoencaAdminComponent&#45;&gt;AppModule</title>
<path fill="none" stroke="black" d="M1583,-84.99C1583,-99.98 1583,-118.8 1583,-118.8 1583,-118.8 1398.92,-118.8 1398.92,-118.8"/>
<polygon fill="black" stroke="black" points="1398.92,-115.3 1388.92,-118.8 1398.92,-122.3 1398.92,-115.3"/>
</g>
<!-- HomeComponent -->
<g id="node7" class="node">
<title>HomeComponent</title>
<polygon fill="#ffffb3" stroke="black" points="1483.55,-84.8 1368.45,-84.8 1368.45,-48.8 1483.55,-48.8 1483.55,-84.8"/>
<text text-anchor="middle" x="1426" y="-62.6" font-family="Times,serif" font-size="14.00">HomeComponent</text>
</g>
<!-- HomeComponent&#45;&gt;AppModule -->
<g id="edge7" class="edge">
<title>HomeComponent&#45;&gt;AppModule</title>
<path fill="none" stroke="black" d="M1378.53,-84.91C1378.53,-84.91 1378.53,-103.79 1378.53,-103.79"/>
<polygon fill="black" stroke="black" points="1375.03,-103.79 1378.53,-113.79 1382.03,-103.79 1375.03,-103.79"/>
</g>
<!-- LoginCadastroComponent -->
<g id="node8" class="node">
<title>LoginCadastroComponent</title>
<polygon fill="#ffffb3" stroke="black" points="1350.04,-84.8 1185.96,-84.8 1185.96,-48.8 1350.04,-48.8 1350.04,-84.8"/>
<text text-anchor="middle" x="1268" y="-62.6" font-family="Times,serif" font-size="14.00">LoginCadastroComponent</text>
</g>
<!-- LoginCadastroComponent&#45;&gt;AppModule -->
<g id="edge8" class="edge">
<title>LoginCadastroComponent&#45;&gt;AppModule</title>
<path fill="none" stroke="black" d="M1327.72,-84.91C1327.72,-84.91 1327.72,-103.79 1327.72,-103.79"/>
<polygon fill="black" stroke="black" points="1324.22,-103.79 1327.72,-113.79 1331.22,-103.79 1324.22,-103.79"/>
</g>
<!-- MedicamentosAdminComponent -->
<g id="node9" class="node">
<title>MedicamentosAdminComponent</title>
<polygon fill="#ffffb3" stroke="black" points="1167.14,-84.8 964.86,-84.8 964.86,-48.8 1167.14,-48.8 1167.14,-84.8"/>
<text text-anchor="middle" x="1066" y="-62.6" font-family="Times,serif" font-size="14.00">MedicamentosAdminComponent</text>
</g>
<!-- MedicamentosAdminComponent&#45;&gt;AppModule -->
<g id="edge9" class="edge">
<title>MedicamentosAdminComponent&#45;&gt;AppModule</title>
<path fill="none" stroke="black" d="M1066,-84.99C1066,-99.98 1066,-118.8 1066,-118.8 1066,-118.8 1295.23,-118.8 1295.23,-118.8"/>
<polygon fill="black" stroke="black" points="1295.23,-122.3 1305.23,-118.8 1295.23,-115.3 1295.23,-122.3"/>
</g>
<!-- MedicamentosComponent -->
<g id="node10" class="node">
<title>MedicamentosComponent</title>
<polygon fill="#ffffb3" stroke="black" points="946.75,-84.8 783.25,-84.8 783.25,-48.8 946.75,-48.8 946.75,-84.8"/>
<text text-anchor="middle" x="865" y="-62.6" font-family="Times,serif" font-size="14.00">MedicamentosComponent</text>
</g>
<!-- MedicamentosComponent&#45;&gt;AppModule -->
<g id="edge10" class="edge">
<title>MedicamentosComponent&#45;&gt;AppModule</title>
<path fill="none" stroke="black" d="M865,-84.83C865,-101.2 865,-122.8 865,-122.8 865,-122.8 1295.07,-122.8 1295.07,-122.8"/>
<polygon fill="black" stroke="black" points="1295.07,-126.3 1305.07,-122.8 1295.07,-119.3 1295.07,-126.3"/>
</g>
<!-- NavbarComponent -->
<g id="node11" class="node">
<title>NavbarComponent</title>
<polygon fill="#ffffb3" stroke="black" points="765.03,-84.8 642.97,-84.8 642.97,-48.8 765.03,-48.8 765.03,-84.8"/>
<text text-anchor="middle" x="704" y="-62.6" font-family="Times,serif" font-size="14.00">NavbarComponent</text>
</g>
<!-- NavbarComponent&#45;&gt;AppModule -->
<g id="edge11" class="edge">
<title>NavbarComponent&#45;&gt;AppModule</title>
<path fill="none" stroke="black" d="M704,-85.1C704,-103.07 704,-127.8 704,-127.8 704,-127.8 1295.31,-127.8 1295.31,-127.8"/>
<polygon fill="black" stroke="black" points="1295.31,-131.3 1305.31,-127.8 1295.31,-124.3 1295.31,-131.3"/>
</g>
<!-- NavbarLogadoComponent -->
<g id="node12" class="node">
<title>NavbarLogadoComponent</title>
<polygon fill="#ffffb3" stroke="black" points="624.8,-84.8 459.2,-84.8 459.2,-48.8 624.8,-48.8 624.8,-84.8"/>
<text text-anchor="middle" x="542" y="-62.6" font-family="Times,serif" font-size="14.00">NavbarLogadoComponent</text>
</g>
<!-- NavbarLogadoComponent&#45;&gt;AppModule -->
<g id="edge12" class="edge">
<title>NavbarLogadoComponent&#45;&gt;AppModule</title>
<path fill="none" stroke="black" d="M542,-84.91C542,-104.14 542,-131.8 542,-131.8 542,-131.8 1295.13,-131.8 1295.13,-131.8"/>
<polygon fill="black" stroke="black" points="1295.13,-135.3 1305.13,-131.8 1295.13,-128.3 1295.13,-135.3"/>
</g>
<!-- PagamentoComponent -->
<g id="node13" class="node">
<title>PagamentoComponent</title>
<polygon fill="#ffffb3" stroke="black" points="441.54,-84.8 298.46,-84.8 298.46,-48.8 441.54,-48.8 441.54,-84.8"/>
<text text-anchor="middle" x="370" y="-62.6" font-family="Times,serif" font-size="14.00">PagamentoComponent</text>
</g>
<!-- PagamentoComponent&#45;&gt;AppModule -->
<g id="edge13" class="edge">
<title>PagamentoComponent&#45;&gt;AppModule</title>
<path fill="none" stroke="black" d="M370,-84.83C370,-105.57 370,-136.8 370,-136.8 370,-136.8 1295.33,-136.8 1295.33,-136.8"/>
<polygon fill="black" stroke="black" points="1295.33,-140.3 1305.33,-136.8 1295.33,-133.3 1295.33,-140.3"/>
</g>
<!-- RodapeComponent -->
<g id="node14" class="node">
<title>RodapeComponent</title>
<polygon fill="#ffffb3" stroke="black" points="280.1,-84.8 155.9,-84.8 155.9,-48.8 280.1,-48.8 280.1,-84.8"/>
<text text-anchor="middle" x="218" y="-62.6" font-family="Times,serif" font-size="14.00">RodapeComponent</text>
</g>
<!-- RodapeComponent&#45;&gt;AppModule -->
<g id="edge14" class="edge">
<title>RodapeComponent&#45;&gt;AppModule</title>
<path fill="none" stroke="black" d="M218,-85.09C218,-107.01 218,-140.8 218,-140.8 218,-140.8 1295.14,-140.8 1295.14,-140.8"/>
<polygon fill="black" stroke="black" points="1295.14,-144.3 1305.14,-140.8 1295.14,-137.3 1295.14,-144.3"/>
</g>
<!-- SobreComponent -->
<g id="node15" class="node">
<title>SobreComponent</title>
<polygon fill="#ffffb3" stroke="black" points="137.99,-84.8 24.01,-84.8 24.01,-48.8 137.99,-48.8 137.99,-84.8"/>
<text text-anchor="middle" x="81" y="-62.6" font-family="Times,serif" font-size="14.00">SobreComponent</text>
</g>
<!-- SobreComponent&#45;&gt;AppModule -->
<g id="edge15" class="edge">
<title>SobreComponent&#45;&gt;AppModule</title>
<path fill="none" stroke="black" d="M81,-85.12C81,-108.46 81,-145.8 81,-145.8 81,-145.8 1295.24,-145.8 1295.24,-145.8"/>
<polygon fill="black" stroke="black" points="1295.24,-149.3 1305.24,-145.8 1295.24,-142.3 1295.24,-149.3"/>
</g>
<!-- AppComponent  -->
<g id="node18" class="node">
<title>AppComponent </title>
<polygon fill="#80b1d3" stroke="black" points="1401.44,-214.8 1292.56,-214.8 1292.56,-178.8 1401.44,-178.8 1401.44,-214.8"/>
<text text-anchor="middle" x="1347" y="-192.6" font-family="Times,serif" font-size="14.00">AppComponent </text>
</g>
<!-- AppModule&#45;&gt;AppComponent  -->
<g id="edge17" class="edge">
<title>AppModule&#45;&gt;AppComponent </title>
<path fill="none" stroke="black" stroke-dasharray="1,5" d="M1347,-149.91C1347,-149.91 1347,-168.79 1347,-168.79"/>
<polygon fill="black" stroke="black" points="1343.5,-168.79 1347,-178.79 1350.5,-168.79 1343.5,-168.79"/>
</g>
<!-- AppRoutingModule -->
<g id="node17" class="node">
<title>AppRoutingModule</title>
<polygon fill="#8dd3c7" stroke="black" points="2609.27,-84.8 2606.27,-88.8 2585.27,-88.8 2582.27,-84.8 2480.73,-84.8 2480.73,-48.8 2609.27,-48.8 2609.27,-84.8"/>
<text text-anchor="middle" x="2545" y="-62.6" font-family="Times,serif" font-size="14.00">AppRoutingModule</text>
</g>
<!-- AppRoutingModule&#45;&gt;AppModule -->
<g id="edge16" class="edge">
<title>AppRoutingModule&#45;&gt;AppModule</title>
<path fill="none" stroke="black" d="M2545,-85.12C2545,-108.46 2545,-145.8 2545,-145.8 2545,-145.8 1398.94,-145.8 1398.94,-145.8"/>
<polygon fill="black" stroke="black" points="1398.94,-142.3 1388.94,-145.8 1398.93,-149.3 1398.94,-142.3"/>
</g>
</g>
</svg>
