<svg xmlns="http://www.w3.org/2000/svg" viewBox="0 0 1172.38 354.94"><defs><style>.cls-1{fill:#60cef1;}.cls-2{fill:#e06767;}.cls-3{fill:#a0e2f7;}.cls-4{fill:#33b3dc;}.cls-5{fill:#e94c4c;}.cls-6{fill:#fff;}</style></defs><title>Ativo 5</title><g id="Camada_2" data-name="Camada 2"><g id="Camada_1-2" data-name="Camada 1"><rect class="cls-1" x="100.33" y="100.33" width="100.33" height="100.33"/><rect class="cls-2" y="100.33" width="100.33" height="100.33"/><rect class="cls-3" x="100.33" y="200.67" width="100.33" height="100.33"/><rect class="cls-4" x="200.67" y="100.33" width="100.33" height="100.33"/><rect class="cls-5" x="100.33" width="100.33" height="100.33"/><path class="cls-6" d="M141.19,165.05v-6.36a2.88,2.88,0,0,0-1.46-2.7,20.42,20.42,0,0,0-5.06-1.69l-5-1.12a20.94,20.94,0,0,1-5.17-1.74q-3.71-2-3.71-8.16V139q0-4.67,3.35-6.78a16.43,16.43,0,0,1,8.86-2.11,16.29,16.29,0,0,1,8.83,2.11q3.32,2.11,3.32,6.78v2.48q0,1.29-2.25,1.29t-2.25-1.29v-3q0-4.39-7.68-4.39t-7.68,4.39v4.78q0,3.09.93,4.25a6,6,0,0,0,3.46,1.72l5,1.12a40.49,40.49,0,0,1,6.16,1.6q.76.42,1.77.93a3.6,3.6,0,0,1,1.38,1q.37.54.87,1.32a7.44,7.44,0,0,1,.84,4v5.34a7.24,7.24,0,0,1-3.68,6.75,18.28,18.28,0,0,1-9.28,2.14,17.65,17.65,0,0,1-9.17-2.14,7.29,7.29,0,0,1-3.57-6.75V162q0-1.29,2.25-1.29t2.25,1.29v3a3.48,3.48,0,0,0,2.33,3.35,14.55,14.55,0,0,0,5.91,1,15,15,0,0,0,6-1.07A3.51,3.51,0,0,0,141.19,165.05Z"/><path class="cls-6" d="M168.47,172.81H164.7q-4.84,0-6.86-2.33t-2-7.57V139q0-4.67,3.37-6.78a16.83,16.83,0,0,1,9-2.11q5.62,0,8.94,2.11t3.32,6.78v5.23q0,5.51-4.39,6.86,5,1.18,5,7v5.91q0,4.67-3.43,6.78A17.25,17.25,0,0,1,168.47,172.81Zm2-19.74h-7q-1.13,0-1.12-2t1.12-2h6.47q6.07,0,6.07-5v-5.79q0-4.39-7.82-4.39t-7.82,4.39v24.52q0,3.26,1,4.61a3.93,3.93,0,0,0,3.4,1.35h3.66q8.15,0,8.16-4.39V158Q176.52,153.07,170.44,153.07Z"/><path class="cls-6" d="M311.89,274.14A26.25,26.25,0,0,0,309,265.8a19.27,19.27,0,0,0-11.47-9.17,27.29,27.29,0,0,0-7.9-1.1,30.62,30.62,0,0,0-7.94,1,19.19,19.19,0,0,0-6.7,3.22,15.87,15.87,0,0,0-4.63,5.65,18.16,18.16,0,0,0-1.72,8.21,12.81,12.81,0,0,0,2,7.28,19,19,0,0,0,5.43,5.29,43,43,0,0,0,7.81,4q4.41,1.77,9.17,3.53,5.29,2,10.59,4.37a42.74,42.74,0,0,1,9.48,5.69,26.66,26.66,0,0,1,6.79,8.12,24.22,24.22,0,0,1,2.6,11.73,31.07,31.07,0,0,1-1.72,10.76,25.81,25.81,0,0,1-4.76,8.16,28.54,28.54,0,0,1-7.1,5.87,41.62,41.62,0,0,1-8.73,3.84,55.19,55.19,0,0,1-9.75,2.07,82.93,82.93,0,0,1-10,.62,98.67,98.67,0,0,1-11.78-.71,114.44,114.44,0,0,1-11.69-2,2.25,2.25,0,0,1-1.28-.75,2.34,2.34,0,0,1-.57-1.19q-.18-1.85-.35-5.43t-.31-7.28q-.13-3.71-.22-6.71t-.09-3.53l4.41-.44a24.5,24.5,0,0,0,2.78,9.17,20.31,20.31,0,0,0,5.47,6.4,22.25,22.25,0,0,0,7.59,3.71,34.25,34.25,0,0,0,9.22,1.19,35.86,35.86,0,0,0,8.56-1,21.77,21.77,0,0,0,7.37-3.26,16.85,16.85,0,0,0,5.16-5.78,17.53,17.53,0,0,0,1.94-8.56,12,12,0,0,0-2-7.06,19.91,19.91,0,0,0-5.43-5.16,43.71,43.71,0,0,0-7.76-4q-4.37-1.76-9-3.62-5.29-2.12-10.59-4.54a43.25,43.25,0,0,1-9.48-5.87,27.14,27.14,0,0,1-6.79-8.34,25.4,25.4,0,0,1-2.6-12q0-8.65,3.4-14.47a27.15,27.15,0,0,1,8.91-9.35,37.64,37.64,0,0,1,12.53-5,68.42,68.42,0,0,1,14.34-1.5,82.24,82.24,0,0,1,10.59.75,99,99,0,0,1,10.76,2,2.27,2.27,0,0,1,1.28.75,2.38,2.38,0,0,1,.57,1.19q.18,1.85.35,5.16t.35,6.7q.18,3.4.26,6.13t.09,3.26Z"/><path class="cls-6" d="M338.79,293.19q4.59-1.85,9-3.26t8.38-2.34q3.92-.93,7.15-1.41a37.12,37.12,0,0,1,5.34-.49,33.82,33.82,0,0,1,10.67,1.46,15.12,15.12,0,0,1,7,4.63,19.26,19.26,0,0,1,3.79,8.07,49.63,49.63,0,0,1,1.06,11.78l-.44,28.76a23.75,23.75,0,0,0,.35,5.12q.44,2.38,1,4.68a1.48,1.48,0,0,1,.09.71q0,1.32-1.76,1.59-1.15.27-2.6.49t-3,.35q-1.5.13-3,.18t-2.65,0a1.87,1.87,0,0,1-1.46-.53,3.63,3.63,0,0,1-.75-1.59l-1.15-4.23q-3.35,1.5-6.88,2.78t-6.75,2.21q-3.22.93-5.87,1.46a23,23,0,0,1-4.32.53,17.93,17.93,0,0,1-8.12-1.72A17.25,17.25,0,0,1,335,342.37a18.6,18.6,0,0,1-1.06-6,18.3,18.3,0,0,1,1.81-8.51,16.63,16.63,0,0,1,4.9-5.78,24.78,24.78,0,0,1,6.4-3.35,46.84,46.84,0,0,1,8.07-2.07q4.41-.75,9.53-1.1t10.76-.53l.09-3a37.27,37.27,0,0,0-.49-7.28,13.88,13.88,0,0,0-2.07-5.43,9.49,9.49,0,0,0-4.06-3.35,15.8,15.8,0,0,0-6.44-1.15,49.36,49.36,0,0,0-9.92,1.06,114.83,114.83,0,0,0-11.78,3.18Zm36.52,27.88-7.76.48q-3.62.22-6.62.66a23.2,23.2,0,0,0-5.29,1.37,9.28,9.28,0,0,0-3.71,2.6,10.37,10.37,0,0,0-1.76,3.09,11.29,11.29,0,0,0-.71,4.06,13.31,13.31,0,0,0,.57,3.79,9.28,9.28,0,0,0,2,3.57,10.91,10.91,0,0,0,3.93,2.69,16,16,0,0,0,6.26,1.06,13.24,13.24,0,0,0,1.72-.18q1.19-.18,2.91-.57t3.84-1.1a37.17,37.17,0,0,0,4.32-1.76Z"/><path class="cls-6" d="M460.89,303.25q0-4.68-1.5-6.4a5.89,5.89,0,0,0-4.68-1.72q-1,0-1.9,0a15.65,15.65,0,0,0-2.25.31l-.53-4.23q4.76-1.32,8.82-2.25t7.19-1.54q3.13-.62,5.12-.88a25.36,25.36,0,0,1,2.6-.26q2.82,0,2.82,3.18v50.37a35.46,35.46,0,0,0,.4,5.51q.4,2.52.93,4.81l.09.53q0,1.32-1.76,1.76-1.15.18-2.6.35l-3,.35q-1.55.18-3.09.26t-2.69.09a1.87,1.87,0,0,1-1.46-.53,3.64,3.64,0,0,1-.75-1.59l-1.32-4.94q-4.15,1.59-8.25,3t-7.81,2.43q-3.7,1-6.79,1.63a27.39,27.39,0,0,1-5.21.62,20.85,20.85,0,0,1-8.51-1.59,15.54,15.54,0,0,1-5.87-4.41,18.39,18.39,0,0,1-3.4-6.84,33.37,33.37,0,0,1-1.1-8.87l.44-29.2q.09-4.68-1.46-6.4a6,6,0,0,0-4.72-1.72c-.65,0-1.28,0-1.9,0a15.62,15.62,0,0,0-2.25.31l-.53-4.23q4.76-1.32,8.82-2.25t7.19-1.54q3.13-.62,5.12-.88a25.36,25.36,0,0,1,2.6-.26q2.82,0,2.82,3.18l-.44,34.32v1.32a41,41,0,0,0,.75,8.34,15.44,15.44,0,0,0,2.51,6,11,11,0,0,0,4.59,3.66,17.37,17.37,0,0,0,7,1.23,20.43,20.43,0,0,0,3.22-.31q1.9-.31,4.06-.88t4.41-1.37q2.25-.79,4.28-1.68Zm-20-24.44,6.79-28.05a3.1,3.1,0,0,1,2.74-2.47q1.41-.27,3.13-.44t3.35-.26l3-.13q1.32,0,2,0,1.5,0,1.5,1.23a2.24,2.24,0,0,1-.35,1.06l-16.76,29.82h-4.76Z"/><path class="cls-6" d="M534.64,238.5q9.7-2.65,16-3.75a70.82,70.82,0,0,1,7.5-1.1q2.82,0,2.82,3.18v103a35.45,35.45,0,0,0,.4,5.51q.4,2.52.93,4.81l.09.53q0,1.32-1.76,1.76-1.15.27-2.6.49t-3,.35q-1.55.13-3,.18t-2.73,0a1.87,1.87,0,0,1-1.46-.53,3.63,3.63,0,0,1-.75-1.59l-1.32-4.94q-4.15,1.59-8.2,3t-7.67,2.43q-3.62,1-6.62,1.63a26.09,26.09,0,0,1-5.12.62,19.08,19.08,0,0,1-10.37-2.91,28.26,28.26,0,0,1-7.9-7.41,34.45,34.45,0,0,1-5-10,35.48,35.48,0,0,1-1.72-10.67,37,37,0,0,1,3.26-15.92,34.11,34.11,0,0,1,8.91-11.69,39,39,0,0,1,13.23-7.23,52.13,52.13,0,0,1,16.23-2.47,69.54,69.54,0,0,1,10.5.79V250.58q0-4.68-1.5-6.4t-4.94-1.72a26.8,26.8,0,0,0-3.62.26Zm10.59,65.19a8.05,8.05,0,0,0-1.46-4.9,10.91,10.91,0,0,0-3.66-3.18,17.28,17.28,0,0,0-4.85-1.72,26.12,26.12,0,0,0-5.12-.53,25.36,25.36,0,0,0-9.84,1.72,17,17,0,0,0-6.66,4.81,19.63,19.63,0,0,0-3.75,7.37,34.62,34.62,0,0,0-1.19,9.31,45.13,45.13,0,0,0,1,9.13,32.5,32.5,0,0,0,3.31,9.09,21,21,0,0,0,6,6.92,14.87,14.87,0,0,0,9.09,2.74,23.5,23.5,0,0,0,2.38-.18q1.59-.18,3.84-.66t5-1.32a55.76,55.76,0,0,0,5.87-2.16Z"/><path class="cls-6" d="M639.53,344.89q-4.23,2-8.91,3.75t-9.13,3q-4.46,1.23-8.29,1.9a38.88,38.88,0,0,1-6.4.66,28.51,28.51,0,0,1-12.66-2.69,27.92,27.92,0,0,1-9.26-7.15A31,31,0,0,1,579.19,334,37.93,37.93,0,0,1,577.25,322a35.58,35.58,0,0,1,3-14.78,34.3,34.3,0,0,1,8.16-11.38,37.09,37.09,0,0,1,12-7.32,40.83,40.83,0,0,1,14.56-2.6,24,24,0,0,1,8.91,1.54,18.75,18.75,0,0,1,6.53,4.23,18.14,18.14,0,0,1,4.06,6.48,23.62,23.62,0,0,1,1.41,8.29,40.36,40.36,0,0,1-1.5,9.7L593,318.33a32.41,32.41,0,0,0,2.21,10.15,22.83,22.83,0,0,0,13.54,13.14,31.65,31.65,0,0,0,11.25,1.85,43.87,43.87,0,0,0,9-1,53.33,53.33,0,0,0,8.6-2.51ZM619.95,311a17.81,17.81,0,0,0,.35-2.38q.09-1.15.09-2.38a14.46,14.46,0,0,0-.75-4.68,11.47,11.47,0,0,0-2.16-3.84,9.77,9.77,0,0,0-3.53-2.56,11.77,11.77,0,0,0-4.76-.93,15.93,15.93,0,0,0-7.28,1.54,14.66,14.66,0,0,0-5,4.1,17.4,17.4,0,0,0-3,6,28.06,28.06,0,0,0-1.06,7.1Z"/><path class="cls-6" d="M732,238.5q9.7-2.65,16-3.75a70.82,70.82,0,0,1,7.5-1.1q2.82,0,2.82,3.18v103a35.45,35.45,0,0,0,.4,5.51q.4,2.52.93,4.81l.09.53q0,1.32-1.76,1.76-1.15.27-2.6.49t-3,.35q-1.55.13-3,.18t-2.73,0a1.87,1.87,0,0,1-1.46-.53,3.63,3.63,0,0,1-.75-1.59L743,346.47q-4.15,1.59-8.2,3t-7.67,2.43q-3.62,1-6.62,1.63a26.09,26.09,0,0,1-5.12.62A19.08,19.08,0,0,1,705,351.24a28.26,28.26,0,0,1-7.9-7.41,34.45,34.45,0,0,1-5-10,35.48,35.48,0,0,1-1.72-10.67,37,37,0,0,1,3.26-15.92,34.11,34.11,0,0,1,8.91-11.69,39,39,0,0,1,13.23-7.23,52.13,52.13,0,0,1,16.23-2.47,69.54,69.54,0,0,1,10.5.79V250.58q0-4.68-1.5-6.4t-4.94-1.72a26.8,26.8,0,0,0-3.62.26Zm10.59,65.19a8.05,8.05,0,0,0-1.46-4.9,10.91,10.91,0,0,0-3.66-3.18,17.28,17.28,0,0,0-4.85-1.72,26.12,26.12,0,0,0-5.12-.53,25.36,25.36,0,0,0-9.84,1.72A17,17,0,0,0,711,299.9a19.63,19.63,0,0,0-3.75,7.37,34.62,34.62,0,0,0-1.19,9.31,45.13,45.13,0,0,0,1,9.13,32.5,32.5,0,0,0,3.31,9.09,21,21,0,0,0,6,6.92,14.87,14.87,0,0,0,9.09,2.74,23.5,23.5,0,0,0,2.38-.18q1.59-.18,3.84-.66t5-1.32a55.76,55.76,0,0,0,5.87-2.16Z"/><path class="cls-6" d="M807.59,354.15a32.84,32.84,0,0,1-13.28-2.6,31.66,31.66,0,0,1-10.28-7.1,31.17,31.17,0,0,1-6.66-10.63,38.61,38.61,0,0,1,.35-27.39,32,32,0,0,1,7.46-11,33.52,33.52,0,0,1,11.38-7.06,40.68,40.68,0,0,1,14.56-2.51,34.47,34.47,0,0,1,13.37,2.51,30.54,30.54,0,0,1,10.32,6.92,31.46,31.46,0,0,1,6.66,10.41,34.83,34.83,0,0,1,2.38,13,38.5,38.5,0,0,1-2.65,14.51,31.87,31.87,0,0,1-7.45,11.2,33.78,33.78,0,0,1-11.47,7.19A40.67,40.67,0,0,1,807.59,354.15Zm4.15-7.76a13.8,13.8,0,0,0,7.85-2.07,14.83,14.83,0,0,0,4.85-5.34,23.07,23.07,0,0,0,2.43-7.32,49.24,49.24,0,0,0,.66-7.94,53.55,53.55,0,0,0-1-10.06,34.21,34.21,0,0,0-3.4-9.75,22.1,22.1,0,0,0-6.26-7.37,15.58,15.58,0,0,0-9.62-2.91,13.81,13.81,0,0,0-7.85,2.07,14.73,14.73,0,0,0-4.85,5.38,24.42,24.42,0,0,0-2.47,7.32,45.93,45.93,0,0,0-.71,8,51.7,51.7,0,0,0,1.06,10.14,34.55,34.55,0,0,0,3.44,9.7,21.73,21.73,0,0,0,6.26,7.28A15.73,15.73,0,0,0,811.74,346.39Z"/><path class="cls-6" d="M894.66,250.93q7.76-1.23,16.85-2.38A164.83,164.83,0,0,1,932,247.41q4.23,0,8.87.35A72.64,72.64,0,0,1,950,249a45.25,45.25,0,0,1,8.56,2.65,26.69,26.69,0,0,1,7.19,4.46,19.66,19.66,0,0,1,4.94,6.66,21.86,21.86,0,0,1,1.81,9.22,23.55,23.55,0,0,1-1.32,7.72,25.54,25.54,0,0,1-3.93,7.23,29.83,29.83,0,0,1-6.44,6.13,33.31,33.31,0,0,1-8.87,4.41v.35q1.5.27,4,.93a33.25,33.25,0,0,1,5.25,1.94,38.07,38.07,0,0,1,5.6,3.22,24.66,24.66,0,0,1,5.07,4.68,23,23,0,0,1,3.66,6.4,23.33,23.33,0,0,1,1.41,8.42,34,34,0,0,1-.44,4.81,25.36,25.36,0,0,1-1.9,6.31,30.51,30.51,0,0,1-4.15,6.75,26.76,26.76,0,0,1-7.19,6.13,41.46,41.46,0,0,1-11.12,4.46,63.35,63.35,0,0,1-15.79,1.72q-4.15,0-7.37-.18t-6.35-.44q-3.13-.26-6.53-.44t-7.9-.18q-2.12,0-2.12-2.21V262.84q0-4.41-1.94-5.87a8.16,8.16,0,0,0-5-1.46,31.43,31.43,0,0,0-3.88.26Zm27.79,45q.88,0,1.72,0c.56,0,1.1,0,1.63,0a63,63,0,0,0,12.79-1.15,24.65,24.65,0,0,0,9-3.62,15.24,15.24,0,0,0,5.34-6.4,23.29,23.29,0,0,0,1.76-9.57,22.08,22.08,0,0,0-1.85-9.48,17.13,17.13,0,0,0-5.16-6.44,21.51,21.51,0,0,0-7.94-3.66,42.41,42.41,0,0,0-10.19-1.15,20,20,0,0,0-5.47.53q-1.68.53-1.68,3.18Zm0,49a25,25,0,0,0,2.69.49q1.63.22,3.48.4t3.84.26q2,.09,3.75.09a26.81,26.81,0,0,0,10.76-1.9,19.31,19.31,0,0,0,6.88-4.81,17.34,17.34,0,0,0,3.62-6.31,21.28,21.28,0,0,0,1.06-6.31A26.94,26.94,0,0,0,956.28,315a17.91,17.91,0,0,0-6.35-7.32,26,26,0,0,0-9.88-3.71,74,74,0,0,0-12.75-1h-3.66a8.6,8.6,0,0,0-1.19.09Z"/><path class="cls-6" d="M1048.87,344.89q-4.23,2-8.91,3.75t-9.13,3q-4.46,1.23-8.29,1.9a38.88,38.88,0,0,1-6.4.66,28.51,28.51,0,0,1-12.66-2.69,27.92,27.92,0,0,1-9.26-7.15A31,31,0,0,1,988.53,334,37.93,37.93,0,0,1,986.59,322a35.58,35.58,0,0,1,3-14.78,34.3,34.3,0,0,1,8.16-11.38,37.09,37.09,0,0,1,12-7.32,40.83,40.83,0,0,1,14.56-2.6,24,24,0,0,1,8.91,1.54,18.75,18.75,0,0,1,6.53,4.23,18.14,18.14,0,0,1,4.06,6.48,23.62,23.62,0,0,1,1.41,8.29,40.36,40.36,0,0,1-1.5,9.7l-41.46,2.21a32.41,32.41,0,0,0,2.21,10.15A22.83,22.83,0,0,0,1018,341.62a31.65,31.65,0,0,0,11.25,1.85,43.87,43.87,0,0,0,9-1,53.33,53.33,0,0,0,8.6-2.51ZM1029.28,311a17.81,17.81,0,0,0,.35-2.38q.09-1.15.09-2.38a14.46,14.46,0,0,0-.75-4.68,11.47,11.47,0,0,0-2.16-3.84,9.77,9.77,0,0,0-3.53-2.56,11.77,11.77,0,0,0-4.76-.93,15.93,15.93,0,0,0-7.28,1.54,14.66,14.66,0,0,0-5,4.1,17.4,17.4,0,0,0-3,6,28.06,28.06,0,0,0-1.06,7.1Z"/><path class="cls-6" d="M1054.78,291.25q4.76-1.32,8.78-2.25t7.06-1.54q3-.62,5-.88a24.15,24.15,0,0,1,2.56-.26q2.65,0,2.91,3.18l.26,3.79q4-1.59,7.9-3t7.5-2.34q3.57-1,6.62-1.54a28.68,28.68,0,0,1,5.16-.57,19,19,0,0,1,9.57,2.16,14.56,14.56,0,0,1,5.78,6.13,112.45,112.45,0,0,1,16.89-6.26,50.19,50.19,0,0,1,12.57-2,21.41,21.41,0,0,1,8.65,1.59,15.52,15.52,0,0,1,5.91,4.41,18.48,18.48,0,0,1,3.4,6.84,33.47,33.47,0,0,1,1.1,8.87l-.44,42.43a2.26,2.26,0,0,1-2.12,2.47q-1.41.27-3.13.49t-3.35.35q-1.63.13-3,.18l-2,0q-2.12,0-2.12-2.21l.44-35.11v-1.32a41,41,0,0,0-.75-8.34,15.49,15.49,0,0,0-2.51-6,11,11,0,0,0-4.63-3.66,18,18,0,0,0-7.1-1.23,17,17,0,0,0-2.21.22q-1.5.22-3.57.71a49,49,0,0,0-9.92,3.57,31.92,31.92,0,0,1,.88,8.29l-.44,41.55a2.26,2.26,0,0,1-2.12,2.47q-1.41.27-3.13.49t-3.35.35q-1.63.13-3,.18l-2,0q-2.12,0-2.12-2.21l.44-35.11v-1.32q0-9.44-3.18-14.38t-11.12-4.94a34,34,0,0,0-5.69.88,49,49,0,0,0-9.84,3.44V350a2.26,2.26,0,0,1-2.12,2.47q-1.41.27-3.13.49t-3.35.35q-1.63.13-3,.18l-2,0q-2.12,0-2.12-2.21V303.25q0-4.68-1.5-6.4t-4.76-1.72q-.88,0-1.81,0a15.62,15.62,0,0,0-2.25.31Z"/></g></g></svg>