<svg xmlns="http://www.w3.org/2000/svg" viewBox="0 0 1270.49 347.66"><defs><style>.cls-1{fill:#60cef1;}.cls-2{fill:#e06767;}.cls-3{fill:#a0e2f7;}.cls-4{fill:#33b3dc;}.cls-5{fill:#e94c4c;}.cls-6{fill:#fff;}</style></defs><title>Ativo 4</title><g id="Camada_2" data-name="Camada 2"><g id="Camada_1-2" data-name="Camada 1"><rect class="cls-1" x="100.33" y="100.33" width="100.33" height="100.33"/><rect class="cls-2" y="100.33" width="100.33" height="100.33"/><rect class="cls-3" x="100.33" y="200.67" width="100.33" height="100.33"/><rect class="cls-4" x="200.67" y="100.33" width="100.33" height="100.33"/><rect class="cls-5" x="100.33" width="100.33" height="100.33"/><path class="cls-6" d="M141.19,165.05v-6.36a2.88,2.88,0,0,0-1.46-2.7,20.42,20.42,0,0,0-5.06-1.69l-5-1.12a20.94,20.94,0,0,1-5.17-1.74q-3.71-2-3.71-8.16V139q0-4.67,3.35-6.78a16.43,16.43,0,0,1,8.86-2.11,16.29,16.29,0,0,1,8.83,2.11q3.32,2.11,3.32,6.78v2.48q0,1.29-2.25,1.29t-2.25-1.29v-3q0-4.39-7.68-4.39t-7.68,4.39v4.78q0,3.09.93,4.25a6,6,0,0,0,3.46,1.72l5,1.12a40.49,40.49,0,0,1,6.16,1.6q.76.42,1.77.93a3.6,3.6,0,0,1,1.38,1q.37.54.87,1.32a7.44,7.44,0,0,1,.84,4v5.34a7.24,7.24,0,0,1-3.68,6.75,18.28,18.28,0,0,1-9.28,2.14,17.65,17.65,0,0,1-9.17-2.14,7.29,7.29,0,0,1-3.57-6.75V162q0-1.29,2.25-1.29t2.25,1.29v3a3.48,3.48,0,0,0,2.33,3.35,14.55,14.55,0,0,0,5.91,1,15,15,0,0,0,6-1.07A3.51,3.51,0,0,0,141.19,165.05Z"/><path class="cls-6" d="M168.47,172.81H164.7q-4.84,0-6.86-2.33t-2-7.57V139q0-4.67,3.37-6.78a16.83,16.83,0,0,1,9-2.11q5.62,0,8.94,2.11t3.32,6.78v5.23q0,5.51-4.39,6.86,5,1.18,5,7v5.91q0,4.67-3.43,6.78A17.25,17.25,0,0,1,168.47,172.81Zm2-19.74h-7q-1.13,0-1.12-2t1.12-2h6.47q6.07,0,6.07-5v-5.79q0-4.39-7.82-4.39t-7.82,4.39v24.52q0,3.26,1,4.61a3.93,3.93,0,0,0,3.4,1.35h3.66q8.15,0,8.16-4.39V158Q176.52,153.07,170.44,153.07Z"/><path class="cls-4" d="M306.16,326.78V310.84a7.24,7.24,0,0,0-3.67-6.77q-3.67-2.12-12.7-4.23L277.24,297q-8.61-2-13-4.37-9.31-4.94-9.31-20.46V261.32q0-11.71,8.4-17T285.56,239q13.83,0,22.15,5.29t8.32,17v6.21q0,3.25-5.64,3.25t-5.64-3.25v-7.62q0-11-19.26-11t-19.26,11v12q0,7.76,2.33,10.65t8.68,4.3l12.56,2.82q13.54,3,15.45,4t4.44,2.33a9,9,0,0,1,3.46,2.61q.92,1.34,2.19,3.32,2.12,3.25,2.12,10v13.4q0,11.57-9.24,16.93t-23.28,5.36q-14,0-23-5.36t-9-16.93v-6.21q0-3.24,5.64-3.25t5.64,3.25v7.62q0,5.79,5.85,8.39t14.81,2.61a37.69,37.69,0,0,0,15.1-2.68Q306.16,332.43,306.16,326.78Z"/><path class="cls-4" d="M379.95,345.55H363.44q-12.42,0-17.92-5.08T340,323.25v-1.13q0-12,4.94-16.51t17.64-5.79l24.41-2.4V281.78q0-11-19.19-11H348.49q-2.82,0-2.82-4.94t2.82-4.94h19.33q13.83,0,22.15,5.29t8.32,17v41.62q0,9.17,3.25,14.53a6.86,6.86,0,0,1,1,2.12q0,1.69-2.68,3.6a8.41,8.41,0,0,1-4.51,1.91q-3.11,0-5.71-5.86T387,326.22V307.31l-23.56,2.4q-7.62.85-9.88,3.39t-2.26,9v1.13q0,6.77,2.33,9.59t9.81,2.82h16.51q2.82,0,2.82,4.94T379.95,345.55Z"/><path class="cls-4" d="M490.42,263.43v61.94q0,11.71-8.4,17t-22.22,5.29q-13.83,0-22.15-5.29t-8.32-17V263.43q0-3.24,5.64-3.25t5.64,3.25v63.35q0,11,19.26,11t19.26-11V263.43q0-3.24,5.64-3.25T490.42,263.43ZM451.62,251l-1,.42q-1.27,0-2.89-2.4a7.61,7.61,0,0,1-1.62-3.74,2.74,2.74,0,0,1,1-2.19l23.84-16.37a3.62,3.62,0,0,1,2.26-.56q1.55,0,3.81,3.46t2.26,5.79a3.29,3.29,0,0,1-1.55,3.17Z"/><path class="cls-4" d="M581.14,235.92v89.45q0,11.71-8.32,17t-22.15,5.29q-13.83,0-22.22-5.29t-8.4-17V283.19q0-11.71,8.32-17t22.15-5.29H562.8q2.82,0,2.82,4.94t-2.82,4.94H550.52q-19.19,0-19.19,11v45q0,11,19.26,11t19.26-11V235.92q0-3.24,5.64-3.25T581.14,235.92Z"/><path class="cls-4" d="M672.56,280.79V285q0,12-4.94,16.51t-18.06,5.78L622.05,310v16.79q0,11,18.34,11,20.88,0,20.88-9.59v-5.36q0-3.24,5.64-3.25t5.64,3.25v4q0,20.88-31,20.88-13.69,0-22.22-5.36t-8.54-16.93v-44.3q0-11.71,9-17t23.56-5.29q14.53,0,21.87,5.08T672.56,280.79Zm-50.51-1.13v20.46l26.53-2.68q8-.85,10.37-3.39t2.33-9v-5.36q0-11-19.61-11T622.05,279.66Z"/><path class="cls-4" d="M814.07,235.92v89.45q0,11.71-8.32,17t-22.15,5.29q-13.83,0-22.22-5.29t-8.4-17V283.19q0-11.71,8.32-17t22.15-5.29h12.27q2.82,0,2.82,4.94t-2.82,4.94H783.46q-19.19,0-19.19,11v45q0,11,19.26,11t19.26-11V235.92q0-3.24,5.64-3.25T814.07,235.92Z"/><path class="cls-4" d="M904.79,281.07v44.3q0,11.71-8.32,17t-22.15,5.29q-13.83,0-22.22-5.29t-8.4-17v-44.3q0-11.71,8.32-17t22.15-5.29q13.83,0,22.22,5.29T904.79,281.07ZM893.5,326.78V279.66q0-11-19.26-11t-19.26,11v47.12q0,11,19.26,11T893.5,326.78Z"/><path class="cls-4" d="M1017,346.25h-9.45q-12.13,0-17.21-5.85t-5.08-19v-60.1q0-11.71,8.47-17t22.57-5.29q14.11,0,22.43,5.29t8.32,17v13.12q0,13.83-11,17.21,12.41,3,12.42,17.5V324q0,11.71-8.61,17T1017,346.25Zm4.94-49.52h-17.64q-2.82,0-2.82-4.94t2.82-4.94h16.23q15.24,0,15.24-12.42V259.91q0-11-19.61-11t-19.61,11v61.51q0,8.18,2.47,11.57t8.54,3.39h9.17q20.46,0,20.46-11V309.15Q1037.13,296.73,1021.89,296.73Z"/><path class="cls-4" d="M1135.61,280.79V285q0,12-4.94,16.51t-18.06,5.78L1085.1,310v16.79q0,11,18.34,11,20.88,0,20.88-9.59v-5.36q0-3.24,5.64-3.25t5.64,3.25v4q0,20.88-31,20.88-13.69,0-22.22-5.36t-8.54-16.93v-44.3q0-11.71,9-17t23.56-5.29q14.53,0,21.87,5.08T1135.61,280.79Zm-50.51-1.13v20.46l26.53-2.68q8-.85,10.37-3.39t2.33-9v-5.36q0-11-19.61-11T1085.1,279.66Z"/><path class="cls-4" d="M1165.23,343V281.07q0-11.57,8.11-16.93t22.5-5.36q14.39,0,22,7.48,7.48-7.48,21.87-7.48,30.76,0,30.76,22.29V343q0,3.25-5.64,3.25T1259.2,343V279.66q0-11-17.85-11t-17.85,11.29V343q0,3.25-5.64,3.25t-5.64-3.25V279.66q0-11-17.85-11t-17.85,11V343q0,3.25-5.64,3.25T1165.23,343Z"/></g></g></svg>