<svg xmlns="http://www.w3.org/2000/svg" viewBox="0 0 406 406"><defs><style>.cls-1{fill:#60cef1;}.cls-2{fill:#e06767;}.cls-3{fill:#a0e2f7;}.cls-4{fill:#33b3dc;}.cls-5{fill:#e94c4c;}.cls-6{fill:#fff;}</style></defs><title>Ativo 1</title><g id="Camada_2" data-name="Camada 2"><g id="Camada_1-2" data-name="Camada 1"><rect class="cls-1" x="135.33" y="135.33" width="135.33" height="135.33"/><rect class="cls-2" y="135.33" width="135.33" height="135.33"/><rect class="cls-3" x="135.33" y="270.67" width="135.33" height="135.33"/><rect class="cls-4" x="270.67" y="135.33" width="135.33" height="135.33"/><rect class="cls-5" x="135.33" width="135.33" height="135.33"/><path class="cls-6" d="M190.44,222.63v-8.57a3.89,3.89,0,0,0-2-3.64,27.54,27.54,0,0,0-6.83-2.28l-6.75-1.52a28.24,28.24,0,0,1-7-2.35q-5-2.66-5-11v-5.84q0-6.3,4.51-9.14t11.95-2.85q7.44,0,11.91,2.85t4.48,9.14v3.34q0,1.75-3,1.75t-3-1.75v-4.1q0-5.92-10.36-5.92T169,186.66v6.45q0,4.17,1.25,5.73t4.67,2.31l6.75,1.52q7.28,1.59,8.31,2.16t2.39,1.25a4.86,4.86,0,0,1,1.86,1.4q.49.72,1.18,1.78a10,10,0,0,1,1.14,5.39v7.21q0,6.22-5,9.1T179,233.85q-7.55,0-12.37-2.88t-4.82-9.1v-3.34q0-1.74,3-1.74t3,1.74v4.1a4.7,4.7,0,0,0,3.15,4.51,19.63,19.63,0,0,0,8,1.4,20.26,20.26,0,0,0,8.12-1.44Q190.44,225.66,190.44,222.63Z"/><path class="cls-6" d="M227.24,233.1h-5.08q-6.53,0-9.26-3.15t-2.73-10.2V187.42q0-6.3,4.55-9.14t12.14-2.85q7.59,0,12.06,2.85t4.48,9.14v7.06q0,7.44-5.92,9.26,6.68,1.59,6.68,9.41v8q0,6.3-4.63,9.14T227.24,233.1Zm2.66-26.63h-9.48q-1.52,0-1.52-2.66t1.52-2.66h8.73q8.19,0,8.19-6.68v-7.81q0-5.92-10.55-5.92t-10.55,5.92v33.08q0,4.4,1.33,6.22t4.59,1.82h4.93q11,0,11-5.92v-8.73Q238.09,206.47,229.9,206.47Z"/></g></g></svg>